<svg width="1157" height="370" viewBox="0 0 1157 370" fill="none" xmlns="http://www.w3.org/2000/svg">
<path d="M247.041 38.3617C229.906 4.09461 188.237 -9.79482 153.968 7.3388C119.7 24.4722 105.81 66.1405 122.943 100.407L184.242 222.999L184.194 223.028C186.554 227.728 187.884 233.035 187.884 238.653C187.884 257.908 172.273 273.518 153.017 273.518C142.483 273.518 133.042 268.848 126.648 261.466C114.152 243.218 93.1606 231.246 69.3722 231.246C31.0587 231.246 0 262.304 0 300.615C0 338.927 31.0587 369.985 69.3722 369.985C96.8953 369.985 120.674 353.958 131.885 330.728C142.346 311.339 161.816 298.086 184.993 298.086C208.009 298.086 228.08 311.124 237.892 330.295L238.564 331.638C255.699 365.905 297.369 379.795 331.637 362.661C365.906 345.528 379.796 303.859 362.661 269.593L247.041 38.3617Z" fill="#00D563"/>
<path fill-rule="evenodd" clip-rule="evenodd" d="M631.86 115.629C623.933 115.629 617.509 121.907 617.509 129.652V135.698C605.964 123.729 590.256 116.367 572.949 116.367C537.495 116.367 508.751 147.262 508.751 185.373C508.751 223.484 537.495 254.379 572.949 254.379C590.256 254.379 605.964 247.017 617.509 235.048V240.356C617.509 248.101 623.933 254.379 631.86 254.379C639.785 254.379 646.21 248.101 646.21 240.356V129.652C646.21 121.907 639.785 115.629 631.86 115.629ZM617.509 185.373C617.509 161.936 601.278 142.936 581.256 142.936C561.234 142.936 545.004 161.936 545.004 185.373C545.004 208.81 561.234 227.81 581.256 227.81C601.278 227.81 617.509 208.81 617.509 185.373Z" fill="black"/>
<path fill-rule="evenodd" clip-rule="evenodd" d="M892.289 245.452C902.852 251.065 915.079 253.871 928.977 253.871C942.872 253.871 955.01 251.065 965.387 245.452C975.948 239.839 984.009 231.781 989.567 221.28C995.311 210.778 998.182 198.556 998.182 184.614C998.182 170.672 995.311 158.541 989.567 148.22C984.009 137.719 975.948 129.661 965.387 124.048C955.01 118.435 942.872 115.629 928.977 115.629C915.079 115.629 902.852 118.435 892.289 124.048C881.913 129.661 873.851 137.719 868.109 148.22C862.365 158.541 859.492 170.672 859.492 184.614C859.492 198.556 862.365 210.778 868.109 221.28C873.851 231.781 881.913 239.839 892.289 245.452ZM954.547 216.663C948.616 223.905 940.002 227.526 928.699 227.526C917.582 227.526 909.058 223.905 903.129 216.663C897.199 209.42 894.235 198.737 894.235 184.614C894.235 170.672 897.199 160.08 903.129 152.838C909.243 145.414 917.859 141.702 928.977 141.702C940.094 141.702 948.616 145.414 954.547 152.838C960.477 160.08 963.44 170.672 963.44 184.614C963.44 198.737 960.477 209.42 954.547 216.663Z" fill="black"/>
<path d="M807.353 226.168C817.729 226.168 822.918 230.423 822.918 238.933C822.918 242.917 821.621 246.085 819.026 248.439C816.432 250.612 812.541 251.698 807.353 251.698H714.522C709.889 251.698 706.091 250.25 703.125 247.353C700.163 244.456 698.68 241.016 698.68 237.032C698.68 232.868 700.347 228.884 703.683 225.082L775.112 144.418H713.132C707.944 144.418 704.052 143.332 701.458 141.159C698.864 138.986 697.567 135.818 697.567 131.653C697.567 127.489 698.864 124.32 701.458 122.147C704.052 119.974 707.944 118.888 713.132 118.888H802.906C807.724 118.888 811.523 120.337 814.302 123.234C817.267 125.949 818.748 129.39 818.748 133.554C818.748 137.9 817.174 141.883 814.022 145.504L742.316 226.168H807.353Z" fill="black"/>
<path d="M1098.72 253.871C1078.52 253.871 1062.21 249.978 1049.8 242.193C1043.87 238.752 1040.91 233.864 1040.91 227.526C1040.91 223.905 1041.93 221.008 1043.96 218.835C1046 216.481 1048.5 215.304 1051.47 215.304C1054.62 215.304 1058.97 216.753 1064.53 219.65C1070.46 222.366 1075.83 224.448 1080.65 225.897C1085.66 227.345 1091.95 228.07 1099.55 228.07C1107.33 228.07 1113.36 226.802 1117.62 224.267C1122.06 221.732 1124.29 218.202 1124.29 213.675C1124.29 210.597 1123.36 208.152 1121.51 206.342C1119.84 204.531 1116.69 202.902 1112.06 201.453C1107.61 199.824 1100.76 198.013 1091.49 196.021C1075 192.762 1063.14 188.145 1055.92 182.17C1048.87 176.195 1045.35 167.956 1045.35 157.455C1045.35 149.488 1047.76 142.336 1052.58 135.999C1057.4 129.48 1063.98 124.501 1072.31 121.061C1080.84 117.44 1090.47 115.629 1101.22 115.629C1109 115.629 1116.5 116.625 1123.73 118.617C1130.96 120.427 1137.44 123.143 1143.19 126.764C1149.12 130.386 1152.08 135.184 1152.08 141.159C1152.08 144.78 1151.06 147.858 1149.02 150.393C1146.99 152.747 1144.48 153.924 1141.52 153.924C1139.48 153.924 1137.44 153.562 1135.41 152.838C1134.51 152.402 1133.5 151.883 1132.35 151.281C1131.85 151.019 1131.33 150.742 1130.78 150.449C1129.97 150.012 1129.1 149.541 1128.18 149.035C1122.81 146.319 1118.17 144.327 1114.28 143.06C1110.39 141.612 1105.57 140.887 1099.83 140.887C1092.97 140.887 1087.51 142.245 1083.43 144.961C1079.54 147.677 1077.59 151.389 1077.59 156.097C1077.59 160.623 1079.63 164.064 1083.71 166.417C1087.79 168.771 1095.66 171.125 1107.33 173.479C1119.75 176.014 1129.48 178.911 1136.52 182.17C1143.56 185.429 1148.56 189.503 1151.53 194.392C1154.68 199.28 1156.25 205.527 1156.25 213.132C1156.25 225.444 1150.97 235.312 1140.41 242.736C1130.03 250.159 1116.13 253.871 1098.72 253.871Z" fill="black"/>
</svg>
